HIERARCHY
ROOT Hips
{
    OFFSET 0.000000 0.000000 0.000000
    CHANNELS 6 Xposition Yposition Zposition Zrotation Xrotation Yrotation
    JOINT Spine
    {
        OFFSET -0.000000 14.517291 0.000000
        CHANNELS 3 Zrotation Xrotation Yrotation
        JOINT Spine1
        {
            OFFSET -0.000000 37.558300 0.000000
            CHANNELS 3 Zrotation Xrotation Yrotation
            JOINT Neck
            {
                OFFSET -0.000000 37.404057 3.400369
                CHANNELS 3 Zrotation Xrotation Yrotation
                JOINT Head
                {
                    OFFSET -0.000000 24.785618 -3.540803
                    CHANNELS 3 Zrotation Xrotation Yrotation
                    End Site
                    {
                        OFFSET -0.000000 35.408028 0.000000
                    }
                }
            }
            JOINT LeftShoulder
            {
                OFFSET 6.992933 33.973492 -0.192664
                CHANNELS 3 Zrotation Xrotation Yrotation
                JOINT LeftArm
                {
                    OFFSET 21.527611 0.000000 0.000000
                    CHANNELS 3 Zrotation Xrotation Yrotation
                    JOINT LeftForeArm
                    {
                        OFFSET 56.353916 0.000000 0.000000
                        CHANNELS 3 Zrotation Xrotation Yrotation
                        JOINT LeftHand
                        {
                            OFFSET 47.774071 0.000000 0.000000
                            CHANNELS 3 Zrotation Xrotation Yrotation
                            End Site
                            {
                                OFFSET 26.556021 0.000000 0.000000
                            }
                        }
                    }
                }
            }
            JOINT RightShoulder
            {
                OFFSET -7.065357 33.973492 -0.192664
                CHANNELS 3 Zrotation Xrotation Yrotation
                JOINT RightArm
                {
                    OFFSET -21.527611 0.000000 0.000000
                    CHANNELS 3 Zrotation Xrotation Yrotation
                    JOINT RightForeArm
                    {
                        OFFSET -56.353916 0.000000 0.000000
                        CHANNELS 3 Zrotation Xrotation Yrotation
                        JOINT RightHand
                        {
                            OFFSET -47.774071 0.000000 0.000000
                            CHANNELS 3 Zrotation Xrotation Yrotation
                            End Site
                            {
                                OFFSET -26.556021 0.000000 0.000000
                            }
                        }
                    }
                }
            }
        }
    }
    JOINT LeftUpLeg
    {
        OFFSET 17.704014 0.000000 0.000000
        CHANNELS 3 Zrotation Xrotation Yrotation
        JOINT LeftLeg
        {
            OFFSET -0.000000 -81.181816 0.000000
            CHANNELS 3 Zrotation Xrotation Yrotation
            JOINT LeftFoot
            {
                OFFSET -0.000000 -62.821102 0.000000
                CHANNELS 3 Zrotation Xrotation Yrotation
                JOINT LeftToeBase
                {
                    OFFSET -0.000000 -11.507608 26.556021
                    CHANNELS 3 Zrotation Xrotation Yrotation
                    End Site
                    {
                        OFFSET -0.000000 0.000000 7.081605
                    }
                }
            }
        }
    }
    JOINT RightUpLeg
    {
        OFFSET -17.704014 0.000000 0.000000
        CHANNELS 3 Zrotation Xrotation Yrotation
        JOINT RightLeg
        {
            OFFSET -0.000000 -81.181816 0.000000
            CHANNELS 3 Zrotation Xrotation Yrotation
            JOINT RightFoot
            {
                OFFSET -0.000000 -62.821102 0.000000
                CHANNELS 3 Zrotation Xrotation Yrotation
                JOINT RightToeBase
                {
                    OFFSET -0.000000 -11.507608 26.556021
                    CHANNELS 3 Zrotation Xrotation Yrotation
                    End Site
                    {
                        OFFSET -0.000000 0.000000 7.081605
                    }
                }
            }
        }
    }
}
MOTION
Frames:    12
Frame Time:    0.008333
36.431381    157.960541    -100.618492    -2.362766    -0.924934    21.380617    2.727254    0.290783    -3.072760    -0.449504    -0.446532    -1.023685    20.260382    1.824587    4.491650    -1.064837    -0.068512    1.811673    12.148463    -3.568128    -15.580248    -21.605986    -27.328663    -29.963062    -18.584261    -54.140453    -89.373177    -57.392033    -44.042484    -55.815350    -8.997588    1.918484    -7.491583    15.130405    19.138582    9.630774    15.982473    12.961467    -1.071144    21.476162    16.400600    17.807486    5.308736    2.676114    5.006460    -10.124661    26.853050    -14.419353    9.341486    -26.377895    46.950401    0.000000    0.000000    0.000000    -10.612110    -25.548084    -4.233252    7.223732    14.759841    -10.252266    2.274735    18.603794    -9.009420    0.000000    0.000000    0.000000    
36.111305    157.987457    -100.485001    -2.514904    -1.077470    21.291580    2.578153    0.326296    -3.018644    -0.666888    -0.467050    -1.006524    20.183641    1.869435    4.465876    -0.931469    -0.212032    1.821415    12.074982    -3.565422    -15.564065    -21.649611    -27.421490    -29.946507    -18.709379    -54.031410    -89.460510    -57.317551    -44.105579    -55.739677    -9.024464    1.948516    -7.504063    15.159207    19.180138    9.649044    15.956985    12.905368    -1.071423    21.481680    16.345989    17.807184    5.622731    2.806314    5.113243    -10.079162    26.821333    -14.430482    9.314139    -26.362057    46.866749    0.000000    0.000000    0.000000    -10.255628    -25.454477    -4.254510    7.222969    14.708349    -10.225757    2.163501    18.678558    -8.867353    0.000000    0.000000    0.000000    
35.785877    158.022171    -100.366882    -2.656085    -1.221249    21.191103    2.400286    0.388981    -2.974128    -0.846145    -0.518004    -0.992484    20.034464    1.935089    4.458530    -0.702301    -0.377821    1.878112    11.961890    -3.576750    -15.551550    -21.665337    -27.593971    -29.866299    -18.893600    -53.796875    -89.546776    -57.217510    -44.073563    -55.664993    -9.069909    1.916503    -7.458843    15.184624    19.094185    9.610508    16.032803    12.941257    -1.103469    21.478649    16.374659    17.747078    5.929120    2.909980    5.259845    -10.034981    26.826691    -14.501381    9.222074    -26.431906    46.859146    0.000000    0.000000    0.000000    -9.918102    -25.379322    -4.206630    7.259136    14.663890    -10.242332    2.058287    18.769390    -8.757425    0.000000    0.000000    0.000000    
35.470295    158.048080    -100.264549    -2.808588    -1.325852    21.100716    2.229470    0.414689    -2.926309    -1.029811    -0.568842    -0.977853    19.947344    1.956880    4.446469    -0.568525    -0.492095    1.900250    11.872629    -3.528947    -15.500246    -21.726973    -27.741190    -29.877277    -19.070894    -53.618813    -89.687927    -57.063026    -44.161461    -55.567280    -9.132064    1.908796    -7.511750    15.206161    19.156897    9.679421    16.027447    12.865646    -1.097310    21.629822    16.297421    17.611940    6.218931    2.962980    5.372797    -9.998646    26.830381    -14.417294    9.060487    -26.595186    46.759621    0.000000    0.000000    0.000000    -9.604875    -25.352901    -4.251445    7.282389    14.643164    -10.226419    1.965518    18.857239    -8.610790    0.000000    0.000000    0.000000    
35.145153    158.076431    -100.164032    -2.962379    -1.440102    21.013250    2.050519    0.461465    -2.878608    -1.210095    -0.648577    -0.963643    19.848906    2.001264    4.411698    -0.385029    -0.605742    1.911902    11.807186    -3.541902    -15.489533    -21.780067    -27.779940    -29.833244    -19.205786    -53.533173    -89.814041    -57.014870    -44.235027    -55.534039    -9.141977    1.926345    -7.506609    15.184333    19.163506    9.689100    16.020145    12.822566    -1.094392    21.723640    16.298195    17.766340    6.519206    3.019066    5.444870    -9.981873    26.836056    -14.362984    8.969432    -26.661922    46.716614    0.000000    0.000000    0.000000    -9.265582    -25.331797    -4.290091    7.270117    14.653012    -10.178638    1.885059    18.933985    -8.497869    0.000000    0.000000    0.000000    
34.847523    158.104370    -100.068413    -3.110211    -1.542436    20.922560    1.891764    0.488513    -2.832755    -1.399674    -0.706870    -0.950190    19.794558    1.982951    4.410603    -0.291679    -0.643885    1.928512    11.721207    -3.508096    -15.468107    -21.836920    -27.962172    -29.797508    -19.346325    -53.306797    -89.908707    -56.841385    -44.254570    -55.404755    -9.189622    2.004441    -7.556767    15.173021    19.073198    9.810360    16.062872    12.859217    -1.132611    21.675196    16.340296    17.808706    6.805644    3.069339    5.488850    -9.995012    26.847456    -14.430832    8.958892    -26.711117    46.827915    0.000000    0.000000    0.000000    -8.959653    -25.306141    -4.279990    7.295735    14.624922    -10.226566    1.796487    19.047539    -8.352736    0.000000    0.000000    0.000000    
34.540714    158.128082    -99.977608    -3.274442    -1.625622    20.827175    1.721545    0.477298    -2.790598    -1.554661    -0.744698    -0.937934    19.659601    2.036516    4.388313    -0.079387    -0.768986    1.964420    11.617850    -3.500041    -15.409421    -21.885038    -27.994486    -29.804754    -19.442026    -53.257397    -90.009056    -56.844120    -44.312954    -55.365543    -9.278827    1.995781    -7.555549    15.212103    19.132858    9.824655    16.040823    12.853879    -1.056919    21.702269    16.317034    17.746227    7.101441    3.086269    5.584604    -9.978326    26.892414    -14.475108    8.959248    -26.692137    46.827496    0.000000    0.000000    0.000000    -8.651670    -25.306156    -4.266973    7.340951    14.601136    -10.195820    1.709996    19.141666    -8.286145    0.000000    0.000000    0.000000    
34.241848    158.156128    -99.880310    -3.424472    -1.722314    20.751223    1.545700    0.470791    -2.764342    -1.725348    -0.779280    -0.931102    19.524200    2.064145    4.362163    0.160616    -0.835178    1.996224    11.556307    -3.465556    -15.387487    -22.149759    -28.643959    -29.892622    -19.805553    -52.549816    -90.051468    -56.516869    -44.117130    -55.018501    -9.321995    2.027961    -7.527441    15.233583    19.326439    9.846640    15.922128    12.758151    -0.978813    21.770666    16.244869    17.867702    7.386258    3.129322    5.660083    -9.969226    26.898220    -14.462607    8.862358    -26.817055    46.844578    0.000000    0.000000    0.000000    -8.347393    -25.289869    -4.274348    7.347434    14.596242    -10.202672    1.660610    19.231113    -8.183273    0.000000    0.000000    0.000000    
33.954304    158.173676    -99.783577    -3.563159    -1.823587    20.664227    1.349542    0.463386    -2.717252    -1.818873    -0.776360    -0.916278    19.300261    2.068953    4.330410    0.428971    -0.927295    2.034564    11.398045    -3.503159    -15.356160    -22.214611    -28.783382    -29.865734    -19.916603    -52.308487    -90.095688    -56.338402    -44.073250    -54.922474    -9.450556    1.986416    -7.529164    15.243759    19.303637    9.865737    15.999240    12.796264    -0.962332    21.784092    16.266829    17.782839    7.673746    3.138991    5.732415    -9.978887    26.903894    -14.447487    8.789519    -26.803123    46.867279    0.000000    0.000000    0.000000    -8.066619    -25.264072    -4.221742    7.401456    14.581483    -10.265135    1.587458    19.303331    -8.081971    0.000000    0.000000    0.000000    
33.675217    158.194962    -99.690559    -3.697219    -1.936163    20.577183    1.201751    0.473491    -2.681940    -2.038308    -0.809541    -0.906721    19.246233    2.125751    4.316778    0.595482    -1.021317    2.063037    11.375646    -3.447947    -15.325895    -22.062750    -28.228130    -29.768234    -19.611158    -52.936802    -90.180908    -56.566822    -44.350647    -55.174908    -9.490161    2.004508    -7.508927    15.268771    19.392782    9.901969    15.936594    12.710372    -0.904953    21.886553    16.188789    17.776327    7.948820    3.219733    5.794797    -9.992726    26.892139    -14.410388    8.730026    -26.865870    46.844425    0.000000    0.000000    0.000000    -7.798329    -25.227444    -4.222075    7.455012    14.580928    -10.228599    1.548557    19.386015    -8.033893    0.000000    0.000000    0.000000    
33.399254    158.208878    -99.590317    -3.841597    -2.066153    20.496248    1.049490    0.464193    -2.644613    -2.170542    -0.783554    -0.894946    19.050810    2.128772    4.278172    0.852868    -1.074243    2.088809    11.252067    -3.471320    -15.312460    -22.106798    -28.278446    -29.745762    -19.635981    -52.859146    -90.189850    -56.529808    -44.321152    -55.133686    -9.601636    2.033867    -7.508668    15.296448    19.428335    9.946280    15.876578    12.534680    -0.777317    22.072050    16.036020    17.822245    8.241312    3.311217    5.861206    -10.005671    26.895708    -14.374350    8.679848    -26.935804    46.817184    0.000000    0.000000    0.000000    -7.505888    -25.179846    -4.239779    7.481447    14.596957    -10.189112    1.514906    19.443922    -7.968993    0.000000    0.000000    0.000000    
33.130844    158.227570    -99.499748    -3.976807    -2.188322    20.407820    0.920607    0.476269    -2.608779    -2.364048    -0.799113    -0.884799    18.905594    2.162667    4.231918    1.092384    -1.132177    2.102708    11.162029    -3.436920    -15.272689    -22.126112    -28.354038    -29.737957    -19.744186    -52.748280    -90.261513    -56.469517    -44.348309    -55.084831    -9.669510    2.044596    -7.495663    15.317676    19.535355    9.998547    15.803289    12.448732    -0.718458    22.153698    15.956969    17.828016    8.508102    3.385313    6.002593    -9.962719    26.931341    -14.376759    8.600376    -26.997440    46.757576    0.000000    0.000000    0.000000    -7.226228    -25.140837    -4.197494    7.515406    14.609703    -10.175575    1.492994    19.512941    -7.930584    0.000000    0.000000    0.000000    
